# xmcd
#
# Track frame offsets: 
#        150
#        18443
#        32531
#        47225
#        61692
#        79123
#        90350
#        101542
#        113041
#        127220
#        141724
#
# Disc length: 2096 seconds
#
# Revision: 0
# Processed by: cddbd v1.5.2PL0 Copyright (c) Steve Scherf et al.
# Submitted via: ExactAudioCopy v1.2
#
DISCID=8e082e0b
DTITLE=Reverend Peyton's Big Damn Band - Front Porch Sessions
DYEAR=2017
DGENRE=Blues
TTITLE0=We Deserve a Happy Ending
TTITLE1=When My Baby Left Me
TTITLE2=Shakey Shirley
TTITLE3=What You Did to the Boy Ain't Right
TTITLE4=One Bad Shoe
TTITLE5=It's All Night Long
TTITLE6=One More Thing
TTITLE7=Flying Squirrels
TTITLE8=Let Your Light Shine
TTITLE9=When You Lose Your Money
TTITLE10=Cornbread and Butterbeans
EXTD=
EXTT0=
EXTT1=
EXTT2=
EXTT3=
EXTT4=
EXTT5=
EXTT6=
EXTT7=
EXTT8=
EXTT9=
EXTT10=
PLAYORDER=
